<?xml version="1.0" encoding="iso-8859-1"?>
<!-- Generator: Adobe Illustrator 19.0.0, SVG Export Plug-In . SVG Version: 6.00 Build 0)  -->
<svg version="1.1" id="Layer_1" xmlns="http://www.w3.org/2000/svg" xmlns:xlink="http://www.w3.org/1999/xlink" x="0px" y="0px"
	 viewBox="0 0 512 512" style="enable-background:new 0 0 512 512;" xml:space="preserve">
<circle style="fill:#88C5CC;" cx="256" cy="256" r="256"/>
<path style="fill:#80B9BF;" d="M486.136,368.192c-0.388-1.416-0.896-2.708-1.588-3.808c-0.392-1.492-0.916-2.84-1.656-3.984
	c-0.388-1.508-0.916-2.86-1.656-4.016c-0.076-0.288-0.148-0.576-0.24-0.852c-0.36-2.796-1.028-5.24-2.248-7.148
	c-0.396-1.5-0.92-2.848-1.656-4c-0.396-1.5-0.92-2.848-1.656-4c-0.392-1.5-0.92-2.848-1.656-4c-0.392-1.5-0.92-2.848-1.656-4
	c-0.392-1.492-0.916-2.84-1.648-3.984c-0.392-1.508-0.92-2.86-1.66-4.016c-0.388-1.5-0.916-2.848-1.656-4
	c-0.388-1.5-0.916-2.848-1.656-4c-0.388-1.5-0.916-2.848-1.656-4c-0.388-1.5-0.916-2.848-1.656-4c-0.388-1.5-0.916-2.848-1.656-4
	c-0.388-1.492-0.916-2.84-1.652-3.984c-0.388-1.508-0.916-2.86-1.656-4.016c-0.392-1.5-0.916-2.848-1.656-4
	c-0.392-1.5-0.916-2.848-1.656-4c-0.392-1.5-0.916-2.848-1.656-4c-0.392-1.5-0.916-2.848-1.656-4
	c-0.076-0.288-0.148-0.576-0.24-0.852c-0.36-2.796-1.028-5.24-2.248-7.148c-0.392-1.492-0.916-2.84-1.648-3.984
	c-0.392-1.508-0.924-2.86-1.66-4.016c-0.388-1.5-0.916-2.848-1.656-4c-0.388-1.5-0.916-2.848-1.656-4
	c-0.388-1.5-0.916-2.848-1.656-4c-0.388-1.5-0.916-2.848-1.656-4c-0.388-1.5-0.916-2.848-1.656-4c-0.388-1.5-0.916-2.848-1.656-4
	c-0.388-1.492-0.916-2.84-1.652-3.984c-0.388-1.508-0.916-2.86-1.656-4.016c-0.392-1.5-0.916-2.848-1.656-4
	c-0.392-1.5-0.916-2.848-1.656-4c-0.392-1.5-0.916-2.848-1.656-4c-0.392-1.5-0.916-2.848-1.656-4c-0.392-1.5-0.916-2.848-1.656-4
	c-0.392-1.5-0.916-2.848-1.652-4c-0.076-0.272-0.148-0.556-0.232-0.82c-0.364-2.812-1.032-5.26-2.252-7.18
	c-0.388-1.5-0.916-2.848-1.656-4c-0.388-1.5-0.916-2.848-1.656-4c-0.388-1.5-0.916-2.848-1.656-4c-0.388-1.5-0.916-2.848-1.656-4
	c-0.388-1.5-0.916-2.848-1.656-4c-0.388-1.5-0.916-2.848-1.656-4c-0.388-1.492-0.916-2.84-1.652-3.984
	c-0.388-1.508-0.916-2.86-1.656-4.016c-0.392-1.5-0.916-2.848-1.656-4c-0.392-1.5-0.916-2.848-1.656-4
	c-0.392-1.5-0.916-2.848-1.656-4c-0.392-1.5-0.916-2.848-1.656-4c-0.392-1.5-0.916-2.848-1.656-4
	c-0.384-1.492-0.916-2.84-1.644-3.984c-0.396-1.508-0.924-2.86-1.66-4.016c-0.392-1.5-0.92-2.848-1.656-4
	c-0.392-1.5-0.92-2.848-1.656-4C389.684,127.316,386.712,124,380,124c-0.012,0-0.028,0-0.04,0c-6.604,0-25.4,0-31.96,0
	c-0.884,0-1.72,0.148-2.564,0.256C340.916,119.316,334.564,116,328,116h-28c-4.416,0-8,3.584-8,8c0,1.28,0.332,2.484,0.872,3.564
	c-0.008,0.148-0.044,0.288-0.044,0.436c0,1.876,0.672,3.58,1.752,4.936c0.18,1.508,0.76,2.872,1.656,4
	c0.18,1.5,0.76,2.868,1.656,3.992c0.18,1.508,0.756,2.88,1.656,4.008c0.18,1.508,0.756,2.872,1.652,4
	c0.184,1.508,0.76,2.872,1.656,4c0.18,1.508,0.76,2.872,1.656,4c0.18,1.508,0.76,2.872,1.656,4c0.18,1.508,0.76,2.872,1.656,4
	c0.18,1.508,0.76,2.872,1.656,4c0.18,1.5,0.76,2.868,1.652,3.992c0.18,1.508,0.756,2.88,1.656,4.008c0.18,1.508,0.756,2.872,1.656,4
	c0.18,1.508,0.756,2.872,1.656,4c0.18,1.508,0.756,2.872,1.656,4c0.18,1.508,0.756,2.872,1.656,4c0.18,1.508,0.756,2.872,1.656,4
	c0.18,1.5,0.756,2.868,1.648,3.992c0.108,0.936,0.376,1.82,0.776,2.632c-0.008,0.144-0.044,0.284-0.044,0.432
	c0,1.876,0.672,3.576,1.752,4.932c0.18,1.508,0.504,2.876,1.4,4c0.18,1.508,1.4,2.876,1.4,4c0,0.008,0,0.008,0,0.008
	C312,244.788,312,288,312,288h-40l-48.084-117.408C223.256,164.584,218.184,160,212,160H96c-6.628,0-12,5.372-12,12v2.048v2.056V184
	v2.048v2.056c0,3.148,1.616,5.976,4,8.092v0.096v2.052c0,3.124,1.624,6.312,4,8.836v1.408c0,3.092,1.628,5.756,4,7.752v0.448v2.048
	c0,0.688,0.124,1.372,0.276,2.048c-0.168,0.088-0.384,0.136-0.54,0.244c-0.364,0.236-0.7,0.492-1,0.788
	c-0.14,0.14-0.268,0.292-0.396,0.444c-0.224,0.268-0.428,0.564-0.616,0.868c-0.1,0.172-0.208,0.328-0.296,0.508
	c-0.232,0.456-0.436,0.944-0.604,1.468c-0.036,0.108-0.064,0.236-0.096,0.344c-0.144,0.496-0.26,1.024-0.356,1.564
	c-0.036,0.22-0.068,0.444-0.1,0.664c-0.064,0.468-0.116,0.944-0.156,1.436c-0.016,0.22-0.036,0.424-0.048,0.644
	C92.024,230.556,92,231.264,92,232s0.024,1.444,0.064,2.148c0.012,0.22,0.032,0.428,0.048,0.644c0.04,0.488,0.092,0.972,0.156,1.432
	c0.032,0.228,0.064,0.444,0.1,0.664c0.096,0.548,0.216,1.072,0.356,1.568c0.032,0.112,0.06,0.236,0.096,0.344
	c0.168,0.524,0.372,1.012,0.604,1.472c0.036,0.072,0.08,0.132,0.12,0.208c0,0.008,0.004,0.016,0.004,0.024
	c0.032,0.112,0.06,0.24,0.096,0.344c0.168,0.524,0.372,1.012,0.604,1.472c0.036,0.072,0.08,0.132,0.12,0.204
	c0.004,0.012,0.004,0.024,0.008,0.032c0.032,0.112,0.06,0.24,0.096,0.344c0.168,0.524,0.372,1.016,0.604,1.472
	c0.036,0.076,0.08,0.132,0.116,0.2c0,0.016,0.004,0.024,0.008,0.04c0.032,0.108,0.06,0.236,0.096,0.344
	c0.168,0.524,0.372,1.012,0.604,1.468c0.036,0.076,0.08,0.14,0.12,0.212c0,0.008,0.004,0.016,0.004,0.024
	c0.032,0.108,0.06,0.236,0.096,0.344c0.168,0.524,0.372,1.012,0.604,1.472c0.036,0.072,0.08,0.136,0.12,0.204
	c0.004,0.012,0.004,0.024,0.008,0.032c0.032,0.112,0.06,0.24,0.096,0.344c0.168,0.528,0.372,1.012,0.604,1.472
	c0.036,0.072,0.08,0.136,0.12,0.212c0,0.008,0.004,0.016,0.004,0.024c0.032,0.108,0.06,0.236,0.096,0.344
	c0.168,0.524,0.372,1.008,0.604,1.468c0.036,0.076,0.08,0.136,0.12,0.204c0.004,0.016,0.004,0.024,0.008,0.036
	c0.032,0.112,0.06,0.236,0.096,0.344c0.168,0.524,0.372,1.012,0.604,1.472c0.036,0.072,0.08,0.132,0.12,0.208
	c0,0.008,0.004,0.016,0.004,0.024c0.032,0.112,0.06,0.24,0.096,0.344c0.168,0.524,0.372,1.012,0.604,1.472
	c0.036,0.072,0.08,0.136,0.12,0.204c0.004,0.012,0.004,0.024,0.008,0.032c0.032,0.112,0.06,0.24,0.096,0.344
	c0.168,0.524,0.372,1.016,0.604,1.472c0.036,0.076,0.08,0.136,0.12,0.208c0,0.008,0.004,0.016,0.004,0.024
	c0.032,0.116,0.06,0.24,0.096,0.344c0.168,0.528,0.372,1.016,0.604,1.476c0.036,0.072,0.08,0.132,0.116,0.2
	c0.004,0.012,0.004,0.024,0.008,0.036c0.032,0.108,0.06,0.236,0.096,0.344c0.168,0.524,0.372,1.012,0.604,1.472
	c0.036,0.076,0.08,0.136,0.12,0.208c0,0.008,0.004,0.016,0.004,0.024c0.032,0.112,0.06,0.236,0.096,0.344
	c0.132,0.416,0.3,0.78,0.476,1.152c-19.064,9.364-32.64,28.02-39.724,63.46l58.044,145.844C160.628,498.016,206.676,512,256,512
	C357.136,512,444.556,453.336,486.136,368.192z"/>
<path id="SVGCleanerId_0" style="fill:#C23527;" d="M413.016,267.32C394.46,225.752,376.808,156,376.808,156H344c0,0,0,23.204,0,44
	c-32,20.788-32,88-32,88h-55.816c0-36-28.184-96-44.184-96H108v136h236L413.016,267.32z"/>
<path id="SVGCleanerId_1" style="fill:#B33124;" d="M244.184,288h12c0-36-28.184-96-44.184-96h-12C216,192,244.184,252,244.184,288z
	"/>
<path id="SVGCleanerId_2" style="fill:#B33124;" d="M376.808,156h-12c0,0,17.652,69.752,36.208,111.32L332,328h12l69.016-60.68
	C394.46,225.752,376.808,156,376.808,156z"/>
<circle style="fill:#242424;" cx="144" cy="336" r="36"/>
<circle style="fill:#CCCCCC;" cx="144" cy="336" r="20"/>
<g>
	<circle style="fill:#242424;" cx="144" cy="336" r="8"/>
	<circle style="fill:#242424;" cx="416" cy="336" r="36"/>
</g>
<circle style="fill:#CCCCCC;" cx="416" cy="336" r="20"/>
<circle style="fill:#242424;" cx="416" cy="336" r="8"/>
<path id="SVGCleanerId_3" style="fill:#C23527;" d="M352,352c-16.152-29.296-10.132-61.908,16-80
	c26.136-18.092,67.848-13.008,84,16.28L352,352z"/>
<path id="SVGCleanerId_4" style="fill:#B33124;" d="M390.916,262.628c12.352,2.344,20.14,5.416,28.336,15.12
	c4.752,5.62-2.836,17.916-6.704,20.38c-16.452,10.48-65.82,41.94-65.82,41.94c1.376,4.008,3.104,8,5.272,11.924l100-63.724
	C440.064,266.632,414.168,258.252,390.916,262.628z"/>
<path id="SVGCleanerId_5" style="fill:#C23527;" d="M220,328c0-40-32.648-72-68.5-72c-46.404,0-75.5,12-87.5,72H220z"/>
<path id="SVGCleanerId_6" style="fill:#B33124;" d="M151.5,256c-3.052,0-6.024,0.056-8.924,0.172
	C177.192,257.936,208,289.152,208,328h12C220,288,187.352,256,151.5,256z"/>
<path id="SVGCleanerId_7" style="fill:#C23527;" d="M380,124c-6.58,0-25.42,0-32,0c-11.048,0-20,8.952-20,20s8.952,20,20,20
	c6.58,0,25.42,0,32,0c11.048,0,12-8.952,12-20S391.048,124,380,124z"/>
<path id="SVGCleanerId_8" style="fill:#F5F5F5;" d="M380,124c-0.012,0-0.028,0-0.04,0c-2.472,5.48-3.96,12.42-3.96,20
	s1.488,14.52,3.96,20c0.012,0,0.028,0,0.04,0c11.048,0,12-8.952,12-20S391.048,124,380,124z"/>
<path id="SVGCleanerId_9" style="fill:#66401E;" d="M224,184c0,6.628-5.372,12-12,12H96c-6.628,0-12-5.372-12-12v-12
	c0-6.628,5.372-12,12-12h116c6.628,0,12,5.372,12,12V184z"/>
<path id="SVGCleanerId_10" style="fill:#E6E6E6;" d="M344,148c-4.416,0-8-3.584-8-8c0-3.584-4.416-8-8-8h-28c-4.416,0-8-3.584-8-8
	s3.584-8,8-8h28c12.336,0,24,11.664,24,24C352,144.416,348.416,148,344,148z"/>
<path id="SVGCleanerId_11" style="fill:#B33124;" d="M108,220c-1.412,0-6.588,0-8,0c-6.628,0-8,5.376-8,12s1.372,12,8,12
	c1.412,0,6.588,0,8,0c6.628,0,12-5.376,12-12S114.628,220,108,220z"/>
<path id="SVGCleanerId_12" style="fill:#FFD464;" d="M96,220.92c-3.216,1.812-4,6.084-4,11.08s0.784,9.264,4,11.08
	c3.216-1.812,4-6.084,4-11.08S99.216,222.736,96,220.92z"/>
<g>
	<path id="SVGCleanerId_0_1_" style="fill:#C23527;" d="M413.016,267.32C394.46,225.752,376.808,156,376.808,156H344
		c0,0,0,23.204,0,44c-32,20.788-32,88-32,88h-55.816c0-36-28.184-96-44.184-96H108v136h236L413.016,267.32z"/>
</g>
<g>
	<path id="SVGCleanerId_1_1_" style="fill:#B33124;" d="M244.184,288h12c0-36-28.184-96-44.184-96h-12
		C216,192,244.184,252,244.184,288z"/>
</g>
<g>
	<path id="SVGCleanerId_2_1_" style="fill:#B33124;" d="M376.808,156h-12c0,0,17.652,69.752,36.208,111.32L332,328h12l69.016-60.68
		C394.46,225.752,376.808,156,376.808,156z"/>
</g>
<circle style="fill:#242424;" cx="144" cy="336" r="36"/>
<circle style="fill:#CCCCCC;" cx="144" cy="336" r="20"/>
<g>
	<circle style="fill:#242424;" cx="144" cy="336" r="8"/>
	<circle style="fill:#242424;" cx="416" cy="336" r="36"/>
</g>
<circle style="fill:#CCCCCC;" cx="416" cy="336" r="20"/>
<circle style="fill:#242424;" cx="416" cy="336" r="8"/>
<g>
	<path id="SVGCleanerId_3_1_" style="fill:#C23527;" d="M352,352c-16.152-29.296-10.132-61.908,16-80
		c26.136-18.092,67.848-13.008,84,16.28L352,352z"/>
</g>
<g>
	<path id="SVGCleanerId_4_1_" style="fill:#B33124;" d="M390.916,262.628c12.352,2.344,20.14,5.416,28.336,15.12
		c4.752,5.62-2.836,17.916-6.704,20.38c-16.452,10.48-65.82,41.94-65.82,41.94c1.376,4.008,3.104,8,5.272,11.924l100-63.724
		C440.064,266.632,414.168,258.252,390.916,262.628z"/>
</g>
<g>
	<path id="SVGCleanerId_5_1_" style="fill:#C23527;" d="M220,328c0-40-32.648-72-68.5-72c-46.404,0-75.5,12-87.5,72H220z"/>
</g>
<g>
	<path id="SVGCleanerId_6_1_" style="fill:#B33124;" d="M151.5,256c-3.052,0-6.024,0.056-8.924,0.172
		C177.192,257.936,208,289.152,208,328h12C220,288,187.352,256,151.5,256z"/>
</g>
<g>
	<path id="SVGCleanerId_7_1_" style="fill:#C23527;" d="M380,124c-6.58,0-25.42,0-32,0c-11.048,0-20,8.952-20,20s8.952,20,20,20
		c6.58,0,25.42,0,32,0c11.048,0,12-8.952,12-20S391.048,124,380,124z"/>
</g>
<g>
	<path id="SVGCleanerId_8_1_" style="fill:#F5F5F5;" d="M380,124c-0.012,0-0.028,0-0.04,0c-2.472,5.48-3.96,12.42-3.96,20
		s1.488,14.52,3.96,20c0.012,0,0.028,0,0.04,0c11.048,0,12-8.952,12-20S391.048,124,380,124z"/>
</g>
<g>
	<path id="SVGCleanerId_9_1_" style="fill:#66401E;" d="M224,184c0,6.628-5.372,12-12,12H96c-6.628,0-12-5.372-12-12v-12
		c0-6.628,5.372-12,12-12h116c6.628,0,12,5.372,12,12V184z"/>
</g>
<g>
	<path id="SVGCleanerId_10_1_" style="fill:#E6E6E6;" d="M344,148c-4.416,0-8-3.584-8-8c0-3.584-4.416-8-8-8h-28
		c-4.416,0-8-3.584-8-8s3.584-8,8-8h28c12.336,0,24,11.664,24,24C352,144.416,348.416,148,344,148z"/>
</g>
<g>
	<path id="SVGCleanerId_11_1_" style="fill:#B33124;" d="M108,220c-1.412,0-6.588,0-8,0c-6.628,0-8,5.376-8,12s1.372,12,8,12
		c1.412,0,6.588,0,8,0c6.628,0,12-5.376,12-12S114.628,220,108,220z"/>
</g>
<g>
	<path id="SVGCleanerId_12_1_" style="fill:#FFD464;" d="M96,220.92c-3.216,1.812-4,6.084-4,11.08s0.784,9.264,4,11.08
		c3.216-1.812,4-6.084,4-11.08S99.216,222.736,96,220.92z"/>
</g>
<g>
</g>
<g>
</g>
<g>
</g>
<g>
</g>
<g>
</g>
<g>
</g>
<g>
</g>
<g>
</g>
<g>
</g>
<g>
</g>
<g>
</g>
<g>
</g>
<g>
</g>
<g>
</g>
<g>
</g>
</svg>
